<?xml version="1.0" encoding="UTF-8"?>
<svg version="1.1" xmlns="http://www.w3.org/2000/svg" width="403" height="376">
<path d="M0 0 C2.52912136 2.27145416 5.00828002 4.59188807 7.46630859 6.93994141 C8.84542803 8.25417217 10.24078963 9.55129411 11.63671875 10.84765625 C24.2391872 22.90298424 34.14766802 37.28859686 42.8984375 52.3046875 C43.25244629 52.9042627 43.60645508 53.50383789 43.97119141 54.12158203 C60.75058411 82.83788667 68.12275058 116.05657675 68.1484375 149.0546875 C68.14911224 149.83369415 68.14978699 150.61270081 68.15048218 151.41531372 C68.13329665 163.93007369 67.50142849 176.02618854 64.8984375 188.3046875 C64.72683105 189.12888184 64.55522461 189.95307617 64.37841797 190.80224609 C60.40077508 209.33258781 53.87813427 226.63934958 44.8984375 243.3046875 C44.42519043 244.19897461 44.42519043 244.19897461 43.94238281 245.11132812 C31.78083179 267.97252352 14.32076819 288.46028829 -6.1015625 304.3046875 C-6.83246094 304.89894531 -7.56335938 305.49320312 -8.31640625 306.10546875 C-26.52833219 320.02847013 -53.23041934 328.15982078 -76.1015625 326.3046875 C-87.01757443 324.05926249 -95.11401074 318.49967309 -102.7890625 310.6171875 C-109.81305783 303.42187521 -115.97490466 300.94748264 -126.1015625 300.3046875 C-131.32844743 300.35189524 -136.54144914 300.69095239 -141.7578125 301.00390625 C-157.66320936 301.95079229 -174.38821849 302.91016934 -187.2890625 291.9921875 C-195.57299175 284.53845596 -201.2631222 275.20465631 -207.21264648 265.90844727 C-214.14807137 254.39594616 -214.14807137 254.39594616 -225.1015625 247.3046875 C-238.80801945 246.18644509 -251.47994812 248.63647952 -264.81982422 251.58154297 C-309.30547655 261.38413947 -309.30547655 261.38413947 -322.4765625 254.5546875 C-327.8467251 249.95169099 -331.57451574 245.37409663 -332.5078125 238.16796875 C-333.26049913 209.65996248 -313.31510725 183.99308911 -298.8671875 160.92700195 C-294.37022164 153.73921768 -289.98016557 146.5311951 -285.9765625 139.0546875 C-285.44506592 138.07242188 -285.44506592 138.07242188 -284.90283203 137.0703125 C-280.20041351 128.07558349 -276.6929818 118.18360404 -279.79296875 108.04296875 C-281.46229082 104.48780167 -283.66434135 101.55417854 -286.1015625 98.4921875 C-293.91809024 88.45932785 -294.94806204 75.57279673 -294.1015625 63.3046875 C-290.78118662 42.15579654 -278.94932271 24.21399397 -265.1015625 8.3046875 C-264.59351074 7.71751953 -264.08545898 7.13035156 -263.56201172 6.52539062 C-255.56174916 -2.64073934 -247.40225032 -10.21458664 -237.1015625 -16.6953125 C-236.13742432 -17.31116211 -236.13742432 -17.31116211 -235.15380859 -17.93945312 C-162.54293893 -63.88810552 -64.66796231 -56.94886586 0 0 Z M-155.1015625 64.3046875 C-173.71268656 89.85312002 -174.65691272 130.61298708 -169.97412109 160.82446289 C-167.11601833 176.14854967 -162.93059693 192.21711639 -151.2265625 203.2421875 C-142.03826834 209.30646164 -131.83335086 209.77648448 -121.18505859 207.74951172 C-93.99389283 201.74757462 -68.60597099 189.0513506 -47.1015625 171.3046875 C-46.17214844 170.53898437 -45.24273437 169.77328125 -44.28515625 168.984375 C-34.12343903 160.19357095 -23.33270582 149.0051566 -21.734375 135.11328125 C-21.19240403 121.3567829 -27.9354178 111.97639301 -36.984375 102.1015625 C-59.16980845 78.71701037 -94.96263082 57.27965954 -127.6171875 55.06640625 C-138.50922231 54.84993275 -147.28964209 56.1376798 -155.1015625 64.3046875 Z " fill="#020101" transform="translate(334.1015625,49.6953125)"/>
<path d="M0 0 C0.66 0.33 1.32 0.66 2 1 C-4.6 7.6 -11.2 14.2 -18 21 C-18.66 20.67 -19.32 20.34 -20 20 C-17.60976384 17.41143945 -15.21183732 14.8301246 -12.8125 12.25 C-12.13896484 11.52039062 -11.46542969 10.79078125 -10.77148438 10.0390625 C-7.36839717 6.38696892 -4.03335373 2.97606683 0 0 Z " fill="#534C26" transform="translate(88,39)"/>
</svg>
