<?xml version="1.0" encoding="UTF-8"?>
<svg version="1.1" xmlns="http://www.w3.org/2000/svg" width="403" height="399">
<path d="M0 0 C3.06471364 2.69889385 6.05164575 5.47379444 9.00439453 8.29443359 C10.38351397 9.60866435 11.77887556 10.9057863 13.17480469 12.20214844 C25.77727314 24.25747643 35.68575396 38.64308904 44.43652344 53.65917969 C44.79053223 54.25875488 45.14454102 54.85833008 45.50927734 55.47607422 C62.28867005 84.19237886 69.66083652 117.41106894 69.68652344 150.40917969 C69.68719818 151.18818634 69.68787292 151.96719299 69.68856812 152.76980591 C69.67138259 165.28456588 69.03951443 177.38068073 66.43652344 189.65917969 C66.26491699 190.48337402 66.09331055 191.30756836 65.91650391 192.15673828 C61.93886102 210.68707999 55.41622021 227.99384176 46.43652344 244.65917969 C45.96327637 245.5534668 45.96327637 245.5534668 45.48046875 246.46582031 C33.29891105 269.36462411 15.84208279 289.73835866 -4.56347656 305.65917969 C-5.52253906 306.41199219 -6.48160156 307.16480469 -7.46972656 307.94042969 C-14.53557213 313.36997418 -21.8380376 318.22183209 -29.56347656 322.65917969 C-30.18818848 323.02011719 -30.81290039 323.38105469 -31.45654297 323.75292969 C-75.0121954 348.62336914 -128.73500119 355.61294056 -177.27441406 342.87011719 C-212.3094361 333.15727564 -243.38323748 316.09610353 -268.56347656 289.65917969 C-269.789375 288.43521484 -269.789375 288.43521484 -271.04003906 287.18652344 C-282.24015807 275.96906678 -282.24015807 275.96906678 -285.97753906 269.83105469 C-289.97189276 262.73871702 -289.97189276 262.73871702 -296.69628906 258.84277344 C-300.03200772 258.90980325 -303.25101475 259.27697256 -306.56347656 259.65917969 C-314.77514788 258.98883917 -320.73272257 256.99599559 -326.31347656 250.72167969 C-331.47301092 243.69898014 -331.71046664 236.13791028 -330.56347656 227.65917969 C-328.62374986 219.19685551 -325.51502427 211.08125573 -321.31811523 203.49267578 C-319.83913073 199.89928412 -320.83490035 196.32753544 -321.56347656 192.65917969 C-321.93740321 190.59114725 -322.30251942 188.52166608 -322.66674805 186.4519043 C-322.92347096 185.00872659 -323.18686932 183.56671368 -323.45825195 182.1262207 C-328.87310991 152.86956869 -325.92681009 122.05209098 -317.56347656 93.65917969 C-317.35916016 92.96228027 -317.15484375 92.26538086 -316.94433594 91.54736328 C-311.04255764 72.04807515 -301.67846923 53.02504697 -289.56347656 36.65917969 C-288.97308594 35.85222656 -288.38269531 35.04527344 -287.77441406 34.21386719 C-286.08713595 31.98282172 -284.3437566 29.81676188 -282.56347656 27.65917969 C-281.73074219 26.64210938 -280.89800781 25.62503906 -280.04003906 24.57714844 C-271.12775581 13.80001943 -261.56200806 4.32966382 -250.56347656 -4.34082031 C-249.15388672 -5.51064453 -249.15388672 -5.51064453 -247.71582031 -6.70410156 C-176.94761288 -63.95786422 -70.25389805 -58.14331999 0 0 Z M-135.31347656 106.03417969 C-148.67921686 123.08168641 -148.13211685 149.82728173 -146.33642578 170.24023438 C-144.90327874 182.07443978 -141.24436476 195.04307424 -132.56347656 203.65917969 C-125.35737854 208.46324504 -116.22057268 207.42263807 -107.98925781 206.07324219 C-84.91056111 200.63415475 -58.2088733 185.83818565 -45.21972656 165.56152344 C-42.05330437 159.69233374 -40.92115571 154.42242753 -42.50097656 147.84667969 C-44.53076405 141.74804879 -48.29686383 137.36523755 -52.56347656 132.65917969 C-53.08683594 132.05460937 -53.61019531 131.45003906 -54.14941406 130.82714844 C-69.30435042 114.40288999 -93.84926524 101.95973215 -116.00097656 99.65917969 C-123.86996382 99.38197673 -129.65244187 100.30041221 -135.31347656 106.03417969 Z " fill="#010100" transform="translate(332.5634765625,48.3408203125)"/>
<path d="M0 0 C7.32178626 6.04919007 11.95973876 14.29374535 17 22.21875 C28.6800999 40.76594874 28.6800999 40.76594874 47.47338867 50.94125366 C51.89975533 51.78724717 56.38848662 51.51045424 60.875 51.41015625 C63.08072281 51.38485661 65.28645232 51.36013522 67.4921875 51.3359375 C70.93934436 51.28644037 74.38614476 51.23055581 77.83300781 51.16357422 C81.18035981 51.10268712 84.52726656 51.06747414 87.875 51.03515625 C88.88995544 51.008237 89.90491089 50.98131775 90.95062256 50.95358276 C99.28871672 50.89594775 106.74062487 52.59019998 113.62109375 57.46875 C114.34941406 58.19449219 115.07773438 58.92023438 115.828125 59.66796875 C116.64796875 60.45300781 117.4678125 61.23804688 118.3125 62.046875 C119.08078125 62.80871094 119.8490625 63.57054687 120.640625 64.35546875 C129.90162362 73.38314764 137.84742349 76.82551211 150.828125 76.91796875 C170.57055984 76.65277893 188.83590284 70.12629555 205.41796875 59.54296875 C206.15144531 59.15109375 206.88492187 58.75921875 207.640625 58.35546875 C208.300625 58.68546875 208.960625 59.01546875 209.640625 59.35546875 C169.43207178 90.44545158 117.9113919 104.21462125 67.49072266 98.48217773 C22.53929057 92.66825823 -18.94538774 73.33725205 -50.359375 40.35546875 C-51.17664063 39.53949219 -51.99390625 38.72351563 -52.8359375 37.8828125 C-59.99741262 30.7102515 -66.34984189 23.38243543 -71.9597168 14.95141602 C-74.16174379 11.71368018 -75.79627767 9.92665349 -79.359375 8.35546875 C-78.39620361 8.21298706 -78.39620361 8.21298706 -77.41357422 8.06762695 C-63.89600926 6.04515342 -50.56558245 3.67814242 -37.26953125 0.50390625 C-9.50756613 -6.05590625 -9.50756613 -6.05590625 0 0 Z " fill="#F8D403" transform="translate(114.359375,297.64453125)"/>
<path d="M0 0 C1.32535767 0.02308228 1.32535767 0.02308228 2.67749023 0.04663086 C32.35012437 0.91624791 63.27761228 18.41952065 85.3125 37.4375 C86.53646484 38.46230469 86.53646484 38.46230469 87.78515625 39.5078125 C97.6903757 48.05049017 110.15056632 59.98959608 111.55078125 73.78515625 C111.92603024 87.51136926 105.2718454 97.02840419 96.20703125 106.859375 C86.61281475 116.93571987 75.74954775 126.05874422 63.3125 132.4375 C62.6525 132.1075 61.9925 131.7775 61.3125 131.4375 C62.2303125 130.74785156 63.148125 130.05820313 64.09375 129.34765625 C74.70004947 121.27224127 84.54931749 113.38495702 88.25 100.0625 C88.44458197 88.77674563 82.40093254 81.80673233 74.9765625 73.97265625 C58.71656977 58.13792487 34.35323534 45.33593186 11.546875 44.34765625 C5.31839557 44.52066957 0.50757663 45.80007372 -3.9375 50.3125 C-17.0402893 67.73449131 -16.67026699 95.77099416 -14.18359375 116.3046875 C-12.54788935 127.04365864 -9.02488667 138.22661491 -1.6875 146.4375 C4.04670755 149.58800171 8.79177858 149.8165366 15.25 149.625 C16.12462891 149.61146484 16.99925781 149.59792969 17.90039062 149.58398438 C20.03803086 149.54894109 22.17534984 149.49514541 24.3125 149.4375 C17.32406626 154.09645582 8.28114839 153.67914881 0.125 153.8125 C-1.13944946 153.85141357 -1.13944946 153.85141357 -2.42944336 153.89111328 C-10.03628401 153.91350171 -16.10116422 151.4996593 -21.6875 146.25 C-31.14731197 136.21291604 -35.13552353 121.65405182 -37.6875 108.4375 C-37.91179687 107.3546875 -38.13609375 106.271875 -38.3671875 105.15625 C-41.51042065 86.72743097 -41.83632393 64.26628814 -37.33203125 46.0546875 C-36.82788673 44.00755519 -36.37794643 41.9470569 -35.94921875 39.8828125 C-33.19375316 27.09910289 -28.58203743 12.56571288 -17.6875 4.4375 C-11.8489884 0.67620597 -6.86863226 -0.18456596 0 0 Z " fill="#F8D303" transform="translate(201.6875,104.5625)"/>
<path d="M0 0 C0.99 0.495 0.99 0.495 2 1 C1.40574219 1.55945312 0.81148438 2.11890625 0.19921875 2.6953125 C-16.51678303 18.86537954 -36.33848076 42.97591748 -37.3984375 67.1484375 C-37.41125232 68.89059539 -37.40305483 70.63302088 -37.375 72.375 C-37.36484863 73.2918457 -37.35469727 74.20869141 -37.34423828 75.15332031 C-37.08287898 86.60855683 -34.83625461 94.78219304 -28 104 C-27.04714149 105.44834493 -26.10874698 106.90634539 -25.1875 108.375 C-24.78917969 109.00148438 -24.39085937 109.62796875 -23.98046875 110.2734375 C-20.85768926 115.77251533 -21.18722313 122.00660228 -22.80078125 127.94921875 C-28.17037206 142.65562382 -36.45211868 155.96093705 -44.8671875 169.07421875 C-48.15001691 174.20273698 -51.30748752 179.40213028 -54.4375 184.625 C-54.92130127 185.42977783 -55.40510254 186.23455566 -55.90356445 187.0637207 C-59.0442845 192.31753685 -62.05863915 197.63215636 -65 203 C-66.957063 200.0644055 -67.43173422 198.61796834 -68.03515625 195.24609375 C-68.20466797 194.30830078 -68.37417969 193.37050781 -68.54882812 192.40429688 C-68.71833984 191.42525391 -68.88785156 190.44621094 -69.0625 189.4375 C-69.32256836 188.00954102 -69.32256836 188.00954102 -69.58789062 186.55273438 C-74.94753794 156.38675007 -72.6350091 125.31523018 -64 96 C-63.79568359 95.30310059 -63.59136719 94.60620117 -63.38085938 93.88818359 C-57.47908108 74.38889546 -48.11499267 55.36586728 -36 39 C-35.40960938 38.19304687 -34.81921875 37.38609375 -34.2109375 36.5546875 C-32.52365939 34.32364203 -30.78028004 32.15758219 -29 30 C-27.75089844 28.47439453 -27.75089844 28.47439453 -26.4765625 26.91796875 C-18.39160133 17.14361271 -9.70697229 8.18856322 0 0 Z " fill="#F8D405" transform="translate(79,46)"/>
<path d="M0 0 C0.66 0.33 1.32 0.66 2 1 C1.31292969 1.67546875 0.62585938 2.3509375 -0.08203125 3.046875 C-1.43361328 4.38492188 -1.43361328 4.38492188 -2.8125 5.75 C-3.70582031 6.63171875 -4.59914063 7.5134375 -5.51953125 8.421875 C-7.55552195 10.53802282 -9.24672943 12.66057685 -11 15 C-12.65071396 16.02611949 -14.31970006 17.02308143 -16 18 C-18.05531111 19.60934738 -20.02032565 21.29655928 -22 23 C-20.38308134 18.91874144 -17.45729468 16.19392281 -14.375 13.1875 C-13.57400879 12.39617676 -13.57400879 12.39617676 -12.75683594 11.58886719 C-8.64780287 7.5589015 -4.4181345 3.69044176 0 0 Z " fill="#F4D941" transform="translate(79,46)"/>
<path d="M0 0 C0.66 0.33 1.32 0.66 2 1 C-14.36893204 13 -14.36893204 13 -17 13 C-16.70898438 11.1315918 -16.70898438 11.1315918 -16 9 C-13.50438957 7.42858175 -11.13375946 6.10038421 -8.5 4.8125 C-3.9558242 2.81037941 -3.9558242 2.81037941 0 0 Z " fill="#EAD036" transform="translate(322,356)"/>
<path d="M0 0 C0.66 0.33 1.32 0.66 2 1 C-4.27 7.27 -10.54 13.54 -17 20 C-17 17 -17 17 -15.20703125 14.9140625 C-14.41683594 14.15867187 -13.62664062 13.40328125 -12.8125 12.625 C-11.99136719 11.8309375 -11.17023438 11.036875 -10.32421875 10.21875 C-9.55722656 9.4865625 -8.79023437 8.754375 -8 8 C-7.03816274 7.04518345 -6.07892051 6.08772593 -5.125 5.125 C-3.41666667 3.41666667 -1.70833333 1.70833333 0 0 Z " fill="#383528" transform="translate(88,39)"/>
<path d="M0 0 C0.33 0.99 0.66 1.98 1 3 C-0.78524649 4.19713017 -2.5784028 5.38247279 -4.375 6.5625 C-5.87160156 7.55443359 -5.87160156 7.55443359 -7.3984375 8.56640625 C-8.25695312 9.03949219 -9.11546875 9.51257813 -10 10 C-10.66 9.67 -11.32 9.34 -12 9 C-8.04 6.03 -4.08 3.06 0 0 Z " fill="#E5CD44" transform="translate(275,227)"/>
</svg>
