<?xml version="1.0" ?><svg data-name="Social Media Icons" id="Social_Media_Icons" viewBox="0 0 512 512" xmlns="http://www.w3.org/2000/svg"><defs><style>.cls-1{fill:#00fffb;}.cls-2{fill:#ff003d;}</style></defs><g id="Tiktok"><g data-name="&lt;Group&gt;" id="_Group_"><path class="cls-1" d="M337.86,30.18A7,7,0,0,0,334,27.59a7.17,7.17,0,0,0-1.8-.24H297.6a7.09,7.09,0,0,0-1.79.24h-5.44a7.08,7.08,0,0,0-6.16,3.58,7.2,7.2,0,0,0-.8,3.29V350.21a104.29,104.29,0,0,1-7.2,39.74l-7.18,14a66.65,66.65,0,0,1-26.2,23.71,73.88,73.88,0,0,1-27.3,7.65c-.83,0-1.67,0-2.5-.07H213a75.24,75.24,0,0,1-10.58-1.26c-1.17.22-2.34.42-3.53.59h-.05c-.29.05-.59.08-.88.12a74.22,74.22,0,0,1-13.24.54,75.14,75.14,0,0,0,9.91-1.12,71.56,71.56,0,0,1-49.23-35.36A75.22,75.22,0,0,0,215,400c38.25-19.36,40.47-64.83,40.47-75.1,0-1.34,0-2.08,0-2.08V7.1a7.11,7.11,0,0,1,7.1-7.1h63a7.11,7.11,0,0,1,7,6,199,199,0,0,0,4.62,21.57C337.36,28.47,337.61,29.33,337.86,30.18Z"/><path class="cls-1" d="M203.6,196l-.17,19.57c-2.6.08-5.36.23-8.24.47h0l-1.36.12C159.23,219.27,108,235.36,72.06,297c-1.66,3.39-14.73,31.44-14.73,68.41a142.45,142.45,0,0,0,29.1,87.27,141.82,141.82,0,0,1-48.72-66.26,142.66,142.66,0,0,1-7.77-37.45c-3.1-42.36,12.48-75.84,14.29-79.57h0c50.3-86.11,130.32-83.29,153.15-80.51A7.08,7.08,0,0,1,203.6,196Z"/><path class="cls-1" d="M215.53,435.27a76.16,76.16,0,0,1-17.6-.62c.29,0,.59-.07.88-.12h.05c1.19-.17,2.36-.37,3.53-.59A75.24,75.24,0,0,0,213,435.2H213C213.86,435.24,214.7,435.26,215.53,435.27Z"/><path class="cls-1" d="M334,27.59h-38.2a7.09,7.09,0,0,1,1.79-.24h34.61A7.17,7.17,0,0,1,334,27.59Z"/><path class="cls-1" d="M454.64,131.48v16.84c-20.11-5.25-47.26-17.48-67.76-45.93a126.19,126.19,0,0,0,61.25,22A7.09,7.09,0,0,1,454.64,131.48Z"/></g><g data-name="&lt;Group&gt;" id="_Group_2"><path class="cls-2" d="M231.42,223.56l-.51,61.06a7.08,7.08,0,0,1-8.3,6.92,75.53,75.53,0,0,0-25-.22c-.61.11-1.2.2-1.79.32a72.38,72.38,0,0,0-50.45,107.07,70.93,70.93,0,0,1-21.26-17.85,72.25,72.25,0,0,1-9.1-14.73,73.59,73.59,0,0,1-5.69-18.32,72.63,72.63,0,0,1,9.44-50.28c15.69-25.63,46.11-38.88,76-33.58a7.07,7.07,0,0,0,8.12-5.37,6.64,6.64,0,0,0,.19-1.55l.34-40.9v-.6a145.66,145.66,0,0,1,21.78.91A7.1,7.1,0,0,1,231.42,223.56Z"/><path class="cls-2" d="M454.23,197v25a7.07,7.07,0,0,1-2.14,5.09,1.64,1.64,0,0,1-.25.21C418,221.58,386.93,204.88,371,195.12a7.08,7.08,0,0,0-10.78,6.27c0,1.12.07,2.26.1,3.39,0,.11,0,.2,0,.31,1.38,45.81,2,99.4.6,155.69-.41,15.62-1.14,36.87-11.75,61.37-16.07,37.13-44.45,57.8-56.59,65.58-42.7,27.39-85.79,24.74-97.43,23.65l-.51,0h0l-1.22-.12c-13.57-1.47-70-9.9-107-58.57,35,26.24,73.53,30.47,80.9,31.15,11.65,1.08,54.74,3.73,97.44-23.66,12.13-7.79,40.51-28.45,56.6-65.58,10.6-24.5,11.34-45.75,11.73-61.38.11-4.09.19-8.17.27-12.25l-.18-66.87v-.25L333,197.22q-.29-12-.64-23.43a7.08,7.08,0,0,1,10.78-6.26c19.58,12,62,34.46,104.4,34.25A7.05,7.05,0,0,0,454.23,197Z"/><path class="cls-2" d="M197.93,434.65a74.22,74.22,0,0,1-13.24.54,75.14,75.14,0,0,0,9.91-1.12l.56.1C196.08,434.35,197,434.5,197.93,434.65Z"/><path class="cls-2" d="M283.41,350.21a104.29,104.29,0,0,1-7.2,39.74,104.8,104.8,0,0,0,7.07-39.51V34.69a7.05,7.05,0,0,1,.93-3.52,7.2,7.2,0,0,0-.8,3.29Z"/><path class="cls-2" d="M386.88,102.39c-18.53-13-36.48-33.7-47.24-66.44-.61-1.88-1.21-3.8-1.78-5.77A7,7,0,0,0,334,27.59h19.32a7.13,7.13,0,0,1,7,6C365.07,63.37,374.83,85.68,386.88,102.39Z"/><path class="cls-2" d="M482.46,159.07v63.2a7.1,7.1,0,0,1-7.06,7.1,136.22,136.22,0,0,1-23.44-2l-.12,0a1.64,1.64,0,0,0,.25-.21,7.07,7.07,0,0,0,2.14-5.09V197l.41-48.69A123.76,123.76,0,0,0,476,152,7.11,7.11,0,0,1,482.46,159.07Z"/></g><g data-name="&lt;Group&gt;" id="_Group_3"><path d="M454.64,148.32,454.23,197a7.05,7.05,0,0,1-6.65,4.77c-42.44.21-84.82-22.24-104.4-34.25a7.08,7.08,0,0,0-10.78,6.26q.36,11.4.64,23.43l.15,56.59v.25l.18,66.87c-.08,4.08-.16,8.16-.27,12.25-.39,15.63-1.13,36.88-11.73,61.38-16.09,37.13-44.47,57.79-56.6,65.58-42.7,27.39-85.79,24.74-97.44,23.66-7.37-.68-45.87-4.91-80.9-31.15a142.45,142.45,0,0,1-29.1-87.27c0-37,13.07-65,14.73-68.41,36-61.61,87.17-77.7,121.76-80.85l1.36-.12h0c2.88-.24,5.64-.39,8.24-.47v.6l-.34,40.9a6.64,6.64,0,0,1-.19,1.55,7.07,7.07,0,0,1-8.12,5.37c-29.91-5.3-60.33,7.95-76,33.58a72.63,72.63,0,0,0-9.44,50.28A73.59,73.59,0,0,0,115,366.13a72.25,72.25,0,0,0,9.1,14.73,70.93,70.93,0,0,0,21.26,17.85,71.56,71.56,0,0,0,49.23,35.36,75.14,75.14,0,0,1-9.91,1.12,74.22,74.22,0,0,0,13.24-.54,76.16,76.16,0,0,0,17.6.62,73.88,73.88,0,0,0,27.3-7.65A66.65,66.65,0,0,0,269,403.91l7.18-14a104.29,104.29,0,0,0,7.2-39.74V34.46a7.2,7.2,0,0,1,.8-3.29,7.08,7.08,0,0,1,6.16-3.58H334a7,7,0,0,1,3.85,2.59c.57,2,1.17,3.89,1.78,5.77,10.76,32.74,28.71,53.4,47.24,66.44C407.38,130.84,434.53,143.07,454.64,148.32Z"/><path d="M269,403.91a66.65,66.65,0,0,1-26.2,23.71,73.88,73.88,0,0,1-27.3,7.65,76.16,76.16,0,0,1-17.6-.62,74.22,74.22,0,0,1-13.24.54,75.14,75.14,0,0,0,9.91-1.12l.69-.13c1.17.22,2.34.42,3.52.59h.05a75.63,75.63,0,0,0,14.11.67H213A73.8,73.8,0,0,0,243,427.38,66.66,66.66,0,0,0,269,403.91Z"/><path d="M326.91,27.59H290.37a7.08,7.08,0,0,0-6.16,3.58,7.1,7.1,0,0,1,6.29-3.82h34.61A7.23,7.23,0,0,1,326.91,27.59Z"/></g></g></svg>