<?xml version="1.0" encoding="UTF-8"?>
<svg version="1.1" xmlns="http://www.w3.org/2000/svg" width="403" height="403">
<path d="M0 0 C0.68384766 0.18868652 1.36769531 0.37737305 2.07226562 0.57177734 C50.83514898 14.41816817 92.93670523 49.369165 117.88671875 93.125 C129.25861822 113.71836056 137.13897596 135.77599299 141 159 C141.33644531 160.94712891 141.33644531 160.94712891 141.6796875 162.93359375 C148.84090749 212.42449084 135.85285575 264.31163838 107 305 C102.87308817 310.50731322 98.47148874 315.77165162 94 321 C93.3090625 321.83273437 92.618125 322.66546875 91.90625 323.5234375 C87.98650167 328.17368439 83.66863995 332.11358368 79 336 C78.17628906 336.7115625 77.35257812 337.423125 76.50390625 338.15625 C54.18286079 357.07568476 26.48416628 368.3076807 -3 366 C-13.00844491 364.07261966 -20.10153228 358.12112578 -26.9375 350.875 C-32.67255186 344.96789659 -39.99820042 341.24376532 -48.2980957 340.90666199 C-49.08273193 340.92094742 -49.86736816 340.93523285 -50.67578125 340.94995117 C-51.57441895 340.96293747 -52.47305664 340.97592377 -53.39892578 340.98930359 C-54.84114502 341.01586784 -54.84114502 341.01586784 -56.3125 341.04296875 C-58.37889644 341.06537693 -60.44530341 341.08683013 -62.51171875 341.10742188 C-65.74589989 341.14431275 -68.97953367 341.18712215 -72.21337891 341.24682617 C-101.76525933 341.76619537 -101.76525933 341.76619537 -112.91015625 332.1328125 C-120.85644956 324.02313746 -126.78887174 313.95190494 -132.9519043 304.47412109 C-139.69855526 293.51180839 -139.69855526 293.51180839 -150.47290039 287.42260742 C-159.41505414 285.92720909 -168.1647261 287.28922221 -176.9375 289.125 C-178.04359619 289.34438232 -179.14969238 289.56376465 -180.28930664 289.78979492 C-186.36714969 291.00553351 -192.42127827 292.3096499 -198.46875 293.66796875 C-234.3015991 301.62874774 -234.3015991 301.62874774 -247.05078125 295.33203125 C-252.2480621 291.78038241 -255.82123433 287.24745806 -257 281 C-260.14519766 254.02885297 -239.44775692 227.55828717 -226 206 C-208.22668188 180.84088784 -208.22668188 180.84088784 -203.3984375 151.95703125 C-204.72140235 147.10329656 -206.86794577 143.66020054 -209.9375 139.6875 C-218.75672041 127.87981448 -219.26863222 115.26928069 -218 101 C-214.37610234 78.37328899 -198.88578862 59.50045066 -184 43 C-183.15050781 42.04222656 -182.30101562 41.08445313 -181.42578125 40.09765625 C-157.37128914 14.42234078 -119.8276013 0.89385675 -86 -5 C-84.92854736 -5.19480957 -84.92854736 -5.19480957 -83.83544922 -5.39355469 C-56.30431261 -10.20325166 -26.80301501 -7.50255335 0 0 Z M-78.8046875 103.54296875 C-95.53051392 120.38030068 -97.13419102 151.20769042 -97.25 173.5 C-97.11626168 195.73170598 -95.01906897 224.95000084 -79 242 C-72.97745968 247.92940825 -65.11004337 249.72737982 -56.8515625 250.16796875 C-20.99973417 249.0183258 16.96059173 225.21770009 41.0390625 200.2734375 C48.21864762 192.54891233 53.82921877 183.34595669 54.4375 172.625 C53.74597713 157.82128819 42.8355347 146.16409924 32.66796875 136.390625 C8.79190375 114.99655211 -48.36165986 77.51483906 -78.8046875 103.54296875 Z " fill="#000000" transform="translate(259,22)"/>
</svg>
