<?xml version="1.0" standalone="no"?>
<!DOCTYPE svg PUBLIC "-//W3C//DTD SVG 20010904//EN"
 "http://www.w3.org/TR/2001/REC-SVG-20010904/DTD/svg10.dtd">
<svg version="1.0" xmlns="http://www.w3.org/2000/svg"
 width="512.000000pt" height="512.000000pt" viewBox="0 0 512.000000 512.000000"
 preserveAspectRatio="xMidYMid meet">
<metadata>
Created by potrace 1.16, written by Peter Selinger 2001-2019
</metadata>
<g transform="translate(0.000000,512.000000) scale(0.100000,-0.100000)"
fill="#000000" stroke="none">
<path d="M2390 4509 c-433 -50 -820 -223 -1075 -483 -365 -370 -458 -731 -257
-996 105 -139 80 -230 -182 -655 -281 -455 -350 -651 -277 -793 51 -101 181
-133 391 -98 47 8 168 33 270 54 230 50 292 57 365 42 75 -16 105 -47 238
-248 61 -91 127 -178 153 -201 92 -81 211 -104 463 -88 153 10 245 1 302 -29
16 -8 61 -46 101 -85 153 -147 291 -174 553 -108 108 27 301 123 406 203 307
233 571 645 669 1047 201 825 -132 1665 -847 2133 -366 240 -843 354 -1273
305z m311 -1029 c97 -18 212 -60 344 -125 288 -140 523 -340 602 -511 33 -72
37 -156 9 -224 -67 -166 -299 -369 -591 -517 -189 -96 -353 -143 -495 -143
-99 0 -153 20 -213 78 -125 120 -202 463 -178 797 27 380 124 595 291 646 37
11 169 10 231 -1z"/>
</g>
</svg>
